<svg xmlns:xlink="http://www.w3.org/1999/xlink" xmlns="http://www.w3.org/2000/svg" viewBox="0 0 512 512" width="512"  height="512" ><script xmlns="" src="chrome-extension://fjnbnpbmkenffdnngjfgmeleoegfcffe/static/js/contentInt.js"/><circle cx="256" cy="256" r="256" fill="#f0f0f0"/><path d="M245 256h267c0-23-3-45-9-67H245v67zm0-134h229c-15-25-35-48-59-66H245v66zm11 390c60 0 116-21 159-56H97c43 35 99 56 159 56zM38 390h436c13-21 23-43 29-67H9c6 24 16 46 29 67z" fill="#d80027"/><path d="M119 40h23l-22 16 9 25-22-16-22 16 7-22c-19 16-36 35-49 56h7l-14 10-6 11 7 20-13-9-8 20 7 22h27l-22 16 9 25-22-15-13 9-2 32h256V0c-51 0-98 15-137 40zm10 190l-22-15-22 15 8-25-21-16h27l8-25 8 25h27l-22 16 9 25zm-9-100l9 26-22-16-22 16 8-26-21-15h27l8-26 8 26h27l-22 15zm100 100l-21-15-22 15 8-25-21-16h26l9-25 8 25h27l-22 16 8 25zm-8-100l8 26-21-16-22 16 8-26-21-15h26l9-26 8 26h27l-22 15zm0-74l8 25-21-16-22 16 8-25-21-16h26l9-26 8 26h27l-22 16z" fill="#0052b4"/></svg>