<?xml version="1.0" encoding="UTF-8"?>
<svg version="1.1" xmlns="http://www.w3.org/2000/svg" width="512" height="512">
<path d="M0 0 C0.73890472 -0.00832352 1.47780945 -0.01664703 2.23910522 -0.02522278 C4.67337367 -0.04924864 7.10737373 -0.058086 9.54174805 -0.06469727 C11.24179664 -0.07366973 12.94184445 -0.08279169 14.64189148 -0.09205627 C18.20350052 -0.10852902 21.76501575 -0.11624317 25.32666016 -0.11914062 C29.8762591 -0.12452056 34.42496855 -0.16219128 38.9743166 -0.20788479 C42.48578561 -0.23772213 45.99704221 -0.24486563 49.50862694 -0.24586678 C51.18508157 -0.25005638 52.86153757 -0.2624399 54.53786659 -0.28338432 C71.4571245 -0.47794203 71.4571245 -0.47794203 77.4909668 5.30639648 C82.39575217 10.34374362 84.46995153 15.67445625 85.07299805 22.54467773 C85.15396729 23.43840088 85.23493652 24.33212402 85.31835938 25.25292969 C85.40380005 26.26939575 85.40380005 26.26939575 85.4909668 27.30639648 C86.28277418 27.30699357 87.07458157 27.30759066 87.89038312 27.30820584 C134.82057906 27.34410071 181.75071065 27.4007411 228.68084713 27.48431744 C234.31595837 27.49433488 239.95106991 27.50417901 245.58618164 27.51391602 C247.26895372 27.51682808 247.26895372 27.51682808 248.98572119 27.51979896 C267.14990192 27.55081903 285.31407002 27.56779964 303.47827224 27.57959071 C322.11678112 27.59200221 340.75522369 27.61950366 359.39369071 27.66100955 C370.8943838 27.68614488 382.39496694 27.69951373 393.89568789 27.69782606 C401.78244199 27.6977963 409.66908408 27.71242564 417.55579452 27.73856077 C422.10585211 27.75320661 426.65568001 27.7614097 431.20575714 27.75219917 C435.37484294 27.74390275 439.54346757 27.75409299 443.71248503 27.7787331 C445.21735345 27.78440954 446.7222657 27.7834124 448.2271208 27.77490893 C457.82293948 27.7253496 466.0723582 28.41023683 474.0769043 34.16577148 C474.66729492 34.78967773 475.25768555 35.41358398 475.8659668 36.05639648 C476.47182617 36.66999023 477.07768555 37.28358398 477.7019043 37.91577148 C482.2769656 44.02917217 484.24398458 49.58282905 484.1706543 57.20874023 C484.16444061 58.06604233 484.15822693 58.92334442 484.15182495 59.80662537 C483.74091477 71.59443873 480.02569736 82.66727634 476.6159668 93.86889648 C475.92257008 96.21870456 475.23184266 98.56930186 474.54370117 100.9206543 C473.17740789 105.57744325 471.79807392 110.23000268 470.40600586 114.87915039 C468.06645088 122.70499217 465.82381781 130.5571539 463.59814453 138.41598511 C462.7979812 141.23670562 461.99096622 144.05544433 461.18377686 146.87416077 C457.15929258 160.92966464 453.23908529 175.01413679 449.32507324 189.10070801 C448.25434941 192.95290172 447.18224609 196.80471098 446.11004639 200.65649414 C445.32303926 203.48602746 444.53807568 206.31612233 443.75317383 209.14624023 C441.65219386 216.70789566 439.54237054 224.26747812 437.30737305 231.79077148 C437.02192627 232.75208984 436.73647949 233.7134082 436.44238281 234.70385742 C433.67163528 242.28306416 428.59317698 248.93465423 421.18544596 252.37810874 C414.09806146 255.14881881 407.99278266 255.86989731 400.4243927 255.78741455 C399.25934871 255.79083225 398.09430472 255.79424995 396.89395636 255.79777122 C393.69191711 255.8031829 390.49054002 255.790828 387.28857887 255.77065897 C383.82384693 255.75327305 380.359142 255.75923849 376.89437866 255.76226807 C370.90200938 255.76435844 364.90981524 255.75188242 358.91749001 255.72931671 C350.25378375 255.69671256 341.59016158 255.68638113 332.92640062 255.68136474 C318.86771526 255.67262524 304.80912309 255.64604629 290.75048828 255.6081543 C277.09945133 255.57139931 263.44843977 255.54310465 249.79736328 255.52612305 C248.95493349 255.52507215 248.1125037 255.52402126 247.24454574 255.52293852 C243.01803071 255.51771811 238.7915155 255.51266334 234.56500018 255.50769091 C199.54025597 255.46627078 164.51562 255.39585913 129.4909668 255.30639648 C129.63195801 256.01135254 129.77294922 256.71630859 129.91821289 257.44262695 C133.2019043 273.86108398 133.2019043 273.86108398 133.85717773 277.16088867 C134.25974096 279.15881804 134.673205 281.15460598 135.10131836 283.1472168 C136.05203372 287.61910015 136.73332071 291.70167223 136.4909668 296.30639648 C137.07405263 296.3048776 137.65713846 296.30335872 138.25789356 296.30179381 C172.820884 296.21226988 207.38385127 296.14364439 241.94693303 296.10213517 C246.0975161 296.09713238 250.24809893 296.09195508 254.39868164 296.08666992 C255.22498345 296.08562068 256.05128526 296.08457144 256.90262651 296.0834904 C270.27973503 296.066088 283.65677474 296.03455123 297.03384244 295.9977853 C310.76126742 295.96037127 324.48865638 295.93815966 338.21613026 295.93004251 C346.68586235 295.92455568 355.15539996 295.90722982 363.62507218 295.87473062 C369.43406568 295.85357702 375.24295873 295.84719834 381.05198795 295.85239097 C384.40297894 295.85495153 387.75335657 295.84885275 391.10433388 295.82957458 C394.74080688 295.80967884 398.37644725 295.81445692 402.01293945 295.82537842 C403.0674294 295.81372705 404.12191935 295.80207569 405.20836353 295.79007125 C412.54070195 295.84960881 417.81000821 297.12997083 423.5144043 302.05249023 C423.96041992 302.6106543 424.40643555 303.16881836 424.8659668 303.74389648 C425.32745117 304.29948242 425.78893555 304.85506836 426.2644043 305.42749023 C429.96642692 311.09842298 430.33815935 316.71417941 429.4909668 323.30639648 C427.64228423 329.14130082 424.89927896 334.16310263 419.50986153 337.32059842 C412.30641854 340.83793888 404.22227365 340.59392473 396.39051819 340.5670929 C395.19748673 340.57091844 394.00445528 340.57474399 392.77527136 340.57868546 C389.48560541 340.58718261 386.19608326 340.58679563 382.90641367 340.58250487 C379.35009834 340.58002917 375.79380882 340.5890622 372.23750305 340.59654236 C365.27902379 340.60926757 358.32058317 340.61108581 351.36209423 340.6087421 C345.7044954 340.6069565 340.04690827 340.60871375 334.38931084 340.61296654 C333.58301199 340.61356173 332.77671315 340.61415692 331.94598101 340.61477014 C330.30780812 340.61598193 328.66963524 340.61719607 327.03146236 340.61841252 C311.68183445 340.62927946 296.33222852 340.62712945 280.98259937 340.62102767 C266.95107055 340.61585809 252.91961114 340.62711655 238.88809604 340.64612589 C224.466538 340.6655133 210.04501279 340.67375878 195.62344164 340.67000264 C187.532401 340.66809212 179.44141946 340.67056372 171.35038948 340.68471718 C164.46315586 340.69664339 157.57601772 340.69802191 150.68878276 340.68592701 C147.17763228 340.68004728 143.66665633 340.67891364 140.15551758 340.69092941 C136.3429834 340.70138799 132.53091651 340.69330253 128.71839905 340.68061829 C127.61750964 340.68799257 126.51662023 340.69536686 125.38237053 340.7029646 C117.58114672 340.64846221 110.56718534 339.57096234 103.6784668 335.74389648 C96.80743371 328.08760247 95.13046202 318.40063567 93.36206055 308.57592773 C93.08540129 307.10421603 92.80737205 305.63276131 92.52809143 304.1615448 C91.79125421 300.26070712 91.07219896 296.3568028 90.35723877 292.4519043 C89.67398831 288.73424371 88.97584497 285.01940145 88.27807617 281.30444336 C87.39243048 276.58302945 86.50894921 271.86123448 85.63198853 267.13819885 C82.88794032 252.36507317 80.08161723 237.60407623 77.26541734 222.84455156 C76.09858981 216.72883047 74.9326204 210.61294564 73.76660156 204.49707031 C73.63411164 203.80217861 73.50162172 203.1072869 73.36511695 202.39133787 C68.66825715 177.75525918 63.99374363 153.11494427 59.33682156 128.47128582 C57.87441126 120.73302642 56.4097456 112.99520587 54.94018555 105.25830078 C53.62194725 98.31805443 52.30751713 91.37709996 50.99777961 84.43524414 C50.31436955 80.8137001 49.62915824 77.19252021 48.93927765 73.57220268 C48.18263819 69.60116671 47.43456035 65.628565 46.68725586 61.65576172 C46.4629892 60.48590729 46.23872253 59.31605286 46.00765991 58.11074829 C45.80623383 57.03239212 45.60480774 55.95403595 45.39727783 54.84300232 C45.22113071 53.91269919 45.0449836 52.98239607 44.86349869 52.02390194 C44.46101973 49.08794186 44.42779493 46.26618806 44.4909668 43.30639648 C43.8867691 43.31527893 43.28257141 43.32416138 42.6600647 43.33331299 C36.33279954 43.42227565 30.00571403 43.48233249 23.67797852 43.52612305 C21.32113418 43.5461538 18.96433902 43.5733864 16.60766602 43.6081543 C13.20666317 43.65704821 9.80632129 43.6794515 6.4050293 43.69702148 C4.84191513 43.7279892 4.84191513 43.7279892 3.2472229 43.75958252 C-4.45590579 43.76190916 -11.86433202 42.59736583 -17.76293945 37.27124023 C-18.19477539 36.6022168 -18.62661133 35.93319336 -19.0715332 35.24389648 C-19.7540918 34.23649414 -19.7540918 34.23649414 -20.45043945 33.20874023 C-23.73189863 27.31180068 -23.60444049 19.24360323 -21.82543945 12.84936523 C-19.3229239 7.41859497 -15.65624611 3.8837093 -10.28694153 1.19273376 C-6.8303364 0.08984712 -3.59022684 0.00346114 0 0 Z " fill="#FFFFFF" transform="translate(25.509033203125,29.693603515625)"/>
<path d="M0 0 C8.28787075 7.67339932 13.52737554 17.04718457 14.203125 28.41796875 C14.36559589 41.48333655 12.04262742 52.29628303 2.9609375 62.23046875 C-7.21552459 71.81360355 -18.42700151 75.47790696 -32.28125 75.24609375 C-43.36811374 74.51240424 -52.72444369 69.25273474 -61 62 C-65.71485521 55.88993253 -69.09408844 49.4711733 -71 42 C-71.226875 41.175 -71.45375 40.35 -71.6875 39.5 C-73.33397644 26.32818845 -69.73319368 14.74227913 -62 4 C-54.92573043 -4.18724733 -44.35409602 -9.33576426 -33.71484375 -10.81640625 C-21.26004733 -11.65867306 -9.65521808 -7.93676642 0 0 Z " fill="#FFFFFF" transform="translate(187,407)"/>
<path d="M0 0 C9.1588944 10.11046785 12.44545153 21.84221304 12.2109375 35.17578125 C11.59340555 46.37140671 6.28822874 56.72156499 -1.8828125 64.40234375 C-12.83110058 72.66405929 -24.58062577 74.88804682 -38 74 C-47.91020037 72.3800634 -58.74205061 66.51795482 -64.9140625 58.51953125 C-72.3862342 46.69712261 -75.76654779 35.31343695 -72.875 21.25 C-71.37083493 15.60087328 -69.3080607 10.81517145 -66 6 C-65.58105469 5.38640625 -65.16210938 4.7728125 -64.73046875 4.140625 C-57.80839405 -4.87602561 -47.41789181 -9.3515796 -36.625 -11.75 C-23.06278177 -12.6853254 -10.57436244 -8.60091999 0 0 Z " fill="#FFFFFF" transform="translate(443,408)"/>
</svg>
