<?xml version="1.0" encoding="UTF-8"?>
<svg version="1.1" xmlns="http://www.w3.org/2000/svg" width="512" height="512">
<path d="M0 0 C58.74 0 117.48 0 178 0 C180.34769707 23.47697074 180.34769707 23.47697074 180.625 31.125 C180.67974487 32.58824707 180.67974487 32.58824707 180.7355957 34.08105469 C181.43503323 55.29022826 181.26324187 76.43914414 180.0625 97.625 C180.01902435 98.39380493 179.97554871 99.16260986 179.93075562 99.95471191 C179.50329549 107.34731613 178.91957256 114.64341948 178 122 C119.26 122 60.52 122 0 122 C-2.30255962 101.27696343 -2.30255962 101.27696343 -2.6328125 94.5703125 C-2.67437469 93.80298798 -2.71593689 93.03566345 -2.75875854 92.24508667 C-2.84343244 90.66124257 -2.92567402 89.07726639 -3.00537109 87.49316406 C-3.12603899 85.10443219 -3.25582562 82.71631633 -3.38671875 80.328125 C-4.12162187 66.58041426 -4.00862756 53.01882087 -3.25537109 39.27539062 C-3.12635872 36.90001666 -3.00624997 34.52430503 -2.88671875 32.1484375 C-2.80262749 30.57549165 -2.71800802 29.00257393 -2.6328125 27.4296875 C-2.58267502 26.41151443 -2.58267502 26.41151443 -2.53152466 25.37277222 C-2.04682749 16.85906212 -0.94580658 8.51225918 0 0 Z " fill="#FFFFFF" transform="translate(167,195)"/>
<path d="M0 0 C55.44 0 110.88 0 168 0 C167.24166196 8.34171842 166.19595483 15.89654003 164.4375 24 C164.04377197 25.81673218 164.04377197 25.81673218 163.64208984 27.67016602 C154.19731665 70.0071978 138.31451287 123.74725288 100 149 C99.360625 149.474375 98.72125 149.94875 98.0625 150.4375 C91.57754776 154.60639787 82.39841799 154.16381675 75 153 C71.0684486 151.61454638 68.21795576 149.61662059 65 147 C64.11054688 146.34644531 63.22109375 145.69289063 62.3046875 145.01953125 C23.50719889 115.35404205 6.72546218 52.00123153 0 6 C0 4.02 0 2.04 0 0 Z " fill="#FFFFFF" transform="translate(172,346)"/>
<path d="M0 0 C22.24965086 7.61039194 36.1489671 33.15387956 46.04052734 52.83203125 C60.13546023 81.64264556 75 119.43863174 75 152 C19.56 152 -35.88 152 -93 152 C-92.09198353 142.91983531 -90.58542145 134.30749208 -88.625 125.4375 C-88.45315186 124.65731506 -88.28130371 123.87713013 -88.10424805 123.07330322 C-82.90210945 99.72826187 -75.72787758 76.43556151 -65 55 C-64.62020996 54.2255957 -64.24041992 53.45119141 -63.84912109 52.65332031 C-58.46965229 41.74705935 -52.6161253 31.50199532 -45 22 C-44.57638184 21.46793945 -44.15276367 20.93587891 -43.71630859 20.38769531 C-32.15162085 6.14821142 -18.75255408 -2.49464315 0 0 Z " fill="#FFFFFF" transform="translate(265,13)"/>
<path d="M0 0 C38.94 0 77.88 0 118 0 C119.26822124 3.80466373 120.30686774 7.04563171 121.03515625 10.8984375 C121.20466797 11.79046875 121.37417969 12.6825 121.54882812 13.6015625 C121.71833984 14.51679688 121.88785156 15.43203125 122.0625 16.375 C122.23587891 17.2825 122.40925781 18.19 122.58789062 19.125 C124.2871256 28.16154459 125.16820923 36.83387886 125.23828125 46.0234375 C125.24793915 47.07488449 125.25759705 48.12633148 125.26754761 49.2096405 C125.29230629 52.59812961 125.30492975 55.9864303 125.3125 59.375 C125.31692612 61.09842117 125.31692612 61.09842117 125.32144165 62.85665894 C125.33357074 83.54074482 123.98299642 102.05667862 118 122 C79.06 122 40.12 122 0 122 C0.66 109.79 1.32 97.58 2 85 C2.14769048 77.73493148 2.29323235 70.51089842 2.26074219 63.2512207 C2.24995505 60.42572712 2.26082052 57.60086666 2.2734375 54.77539062 C2.24888285 36.41464811 1.02325304 18.41855475 0 0 Z " fill="#FFFFFF" transform="translate(374,195)"/>
<path d="M0 0 C38.94 0 77.88 0 118 0 C117.01 15.84 116.02 31.68 115 48 C114.24853354 72.92363766 116.45869355 96.82532797 118 122 C79.06 122 40.12 122 0 122 C-13.31871817 88.70320459 -13.31871817 33.29679541 0 0 Z " fill="#FFFFFF" transform="translate(20,195)"/>
<path d="M0 0 C0.81763038 0.00092179 1.63526075 0.00184359 2.47766781 0.00279331 C3.88068645 0.00073132 3.88068645 0.00073132 5.31204891 -0.00137234 C6.34638561 0.00222294 7.38072231 0.00581821 8.44640255 0.00952244 C9.52919491 0.00937641 10.61198727 0.00923038 11.72759151 0.00907993 C15.32585778 0.0097796 18.92407301 0.0175745 22.52233028 0.02539158 C25.00954822 0.02725557 27.49676652 0.02867956 29.98398495 0.0296793 C35.87363594 0.03311433 41.76326794 0.04100506 47.65291113 0.05102879 C55.01367777 0.06328536 62.37444668 0.06866992 69.73522091 0.0742197 C82.87129802 0.08495968 96.00735986 0.10184693 109.14342403 0.12304783 C108.66898188 1.56642842 108.19281468 3.00924206 107.71591854 4.4518137 C107.45093783 5.25534086 107.18595713 6.05886803 106.9129467 6.8867445 C105.40251106 11.27620878 103.2901875 15.35880363 101.20592403 19.49804783 C100.72647335 20.45122898 100.24702267 21.40441013 99.75304317 22.38647556 C92.29307908 36.94771679 83.4391606 50.4227149 73.14342403 63.12304783 C72.35967403 64.1104697 71.57592403 65.09789158 70.76842403 66.11523533 C66.49667044 71.44049572 62.08042908 76.41159123 57.14342403 81.12304783 C56.35967403 81.90679783 55.57592403 82.69054783 54.76842403 83.49804783 C53.90217403 84.36429783 53.03592403 85.23054783 52.14342403 86.12304783 C51.57881466 86.73406345 51.01420528 87.34507908 50.43248653 87.97461033 C24.08969931 115.73042063 -12.63946068 132.44440004 -48.20032597 144.65429783 C-49.44072636 145.08065525 -49.44072636 145.08065525 -50.70618534 145.51562595 C-52.85657597 146.12304783 -52.85657597 146.12304783 -55.85657597 146.12304783 C-54.15179967 142.44432004 -51.9520326 139.12747223 -49.73157597 135.74804783 C-25.18617229 97.70710983 -13.1175146 54.56793188 -4.72083378 10.45312595 C-4.48976933 9.24720798 -4.25870487 8.04129002 -4.02063847 6.79882908 C-3.71827274 5.18874973 -3.71827274 5.18874973 -3.40979862 3.54614353 C-2.64012006 0.17497859 -2.64012006 0.17497859 0 0 Z " fill="#FFFFFF" transform="translate(372.85657596588135,345.8769521713257)"/>
<path d="M0 0 C36.63 0 73.26 0 111 0 C112.48610697 4.45832092 113.56851502 8.43438387 114.4453125 13.00390625 C114.71522242 14.38351523 114.98584221 15.76298547 115.25708008 17.14233398 C115.46827988 18.22235184 115.46827988 18.22235184 115.68374634 19.32418823 C120.8764326 45.66470788 128.00372732 71.04244596 138 96 C138.33999023 96.85126465 138.67998047 97.7025293 139.03027344 98.57958984 C142.75518109 107.75572022 147.19565853 116.44007163 152.0625 125.0625 C152.54509277 125.91956543 153.02768555 126.77663086 153.52490234 127.65966797 C156.5337177 132.85634366 159.85469709 137.55238124 163.67749023 142.18530273 C165 144 165 144 165 146 C158.32490126 144.65415942 152.07329934 142.79049517 145.6875 140.4375 C144.73109619 140.08526367 143.77469238 139.73302734 142.78930664 139.37011719 C119.9649379 130.826739 98.39032984 119.85163105 79 105 C78.10152344 104.31292969 77.20304687 103.62585938 76.27734375 102.91796875 C71.06665224 98.8347839 66.13096842 94.48917316 61.24609375 90.0234375 C59.47274404 88.42588072 57.68316018 86.91616508 55.8125 85.4375 C52.86266042 82.88097236 50.41494726 80.16990516 47.89453125 77.19921875 C46.63332324 75.73517729 45.33845457 74.29946368 44.01171875 72.89453125 C29.34049386 57.31138379 0 22.24771141 0 0 Z " fill="#FFFFFF" transform="translate(30,346)"/>
<path d="M0 0 C-1.56858644 4.49147156 -3.99188264 8.28430796 -6.5625 12.25 C-32.15830224 52.74312392 -43.04838914 98.45162352 -52 145 C-88.96 145 -125.92 145 -164 145 C-154.9168219 117.75046569 -137.51956705 92.55132122 -118.27734375 71.5 C-116.77320582 69.84880228 -115.28574045 68.18224309 -113.81640625 66.5 C-89.78121149 39.08016997 -38.02030387 0 0 0 Z " fill="#FFFFFF" transform="translate(194,20)"/>
<path d="M0 0 C43.84349238 8.92780792 88.9456491 36.67951219 118.01953125 70.6953125 C119.4298676 72.33653231 120.8679839 73.95405289 122.32421875 75.5546875 C135.65266866 90.5765877 164 123.61934461 164 145 C127.04 145 90.08 145 52 145 C50.35 136.42 48.7 127.84 47 119 C38.48525112 78.72808963 25.25545441 38.13424343 1.3984375 4.1875 C0 2 0 2 0 0 Z " fill="#FFFFFF" transform="translate(318,20)"/>
</svg>
