<?xml version="1.0" encoding="UTF-8"?>
<svg version="1.1" xmlns="http://www.w3.org/2000/svg" width="512" height="512">
<path d="M0 0 C0.74324526 -0.00694553 1.48649052 -0.01389106 2.25225836 -0.02104706 C4.73818636 -0.03931667 7.22315998 -0.02905338 9.7091217 -0.01878357 C11.49321201 -0.0258421 13.27729633 -0.03458684 15.06137085 -0.04489136 C19.90439642 -0.06740283 24.74709547 -0.06444147 29.59015346 -0.05556989 C33.63349044 -0.0504615 37.67676599 -0.05775138 41.72009665 -0.06504196 C51.25881062 -0.08204665 60.79736463 -0.07846947 70.33607483 -0.06175232 C80.17633274 -0.04482967 90.0161471 -0.06066625 99.85635656 -0.0929752 C108.30577151 -0.11966654 116.75504834 -0.12694835 125.20450121 -0.11846012 C130.25058972 -0.11352966 135.29641132 -0.11575299 140.34246635 -0.13624763 C145.08768059 -0.15459757 149.83225656 -0.14865449 154.57743645 -0.12404823 C156.31809165 -0.11903817 158.05879541 -0.12253521 159.79941177 -0.13519669 C162.1777991 -0.15112761 164.55408471 -0.13617896 166.93237305 -0.11352539 C167.61963799 -0.12536112 168.30690293 -0.13719685 169.01499408 -0.14939123 C174.51747742 -0.04306311 176.79848748 1.75823791 180.52967834 5.5146637 C181.51356506 7.80934143 181.51356506 7.80934143 181.83436584 10.26075745 C181.96294983 11.22610413 182.09153381 12.19145081 182.22401428 13.18605042 C182.84789651 19.97998835 183.31345539 26.76403773 183.65467834 33.5771637 C183.69637146 34.38289825 183.73806458 35.18863281 183.78102112 36.01878357 C184.98531811 59.68693561 184.91973857 83.22600944 183.65467834 106.8896637 C183.61556335 107.64256683 183.57644836 108.39546997 183.53614807 109.17118835 C182.23547132 133.46797707 182.23547132 133.46797707 178.64344788 137.77784729 C174.76392434 140.96552694 171.21879585 140.644161 166.36906433 140.65510559 C165.63498946 140.65807671 164.90091459 140.66104784 164.14459503 140.66410899 C161.67805534 140.6727997 159.21156417 140.67430454 156.74501038 140.67579651 C154.97930294 140.68042438 153.2135965 140.68544899 151.44789124 140.69084167 C146.64623379 140.70396966 141.84459032 140.71041127 137.04291773 140.71485233 C134.04426923 140.71778207 131.04562457 140.72188667 128.046978 140.72635651 C118.66839272 140.74003173 109.28981618 140.74969859 99.91122162 140.7535584 C89.07826964 140.75804106 78.24544371 140.77559852 67.41253006 140.80455899 C59.04303131 140.82615871 50.67356808 140.83626174 42.30404174 140.83759952 C37.30327822 140.83864866 32.30263318 140.84457982 27.30189896 140.86241913 C22.59873496 140.87887053 17.89577891 140.88106961 13.19259644 140.87228012 C11.46602701 140.8715082 9.73944653 140.87587277 8.01290512 140.88573837 C5.65644102 140.89841424 3.30071829 140.89260529 0.94425964 140.88215637 C-1.03405507 140.88435621 -1.03405507 140.88435621 -3.05233574 140.88660049 C-7.68879276 140.38207268 -10.22054351 138.76444184 -13.47032166 135.5146637 C-15.54412985 127.96171651 -15.98605346 119.98327743 -16.53282166 112.2021637 C-16.61516052 111.07858459 -16.69749939 109.95500549 -16.78233337 108.79737854 C-17.30743901 101.415745 -17.74775567 94.03175149 -18.09532166 86.6396637 C-18.13536316 85.7923468 -18.17540466 84.94502991 -18.21665955 84.07203674 C-18.715762 72.27538554 -18.37137412 60.57073895 -17.72569275 48.79005432 C-17.59668037 46.41468035 -17.47657163 44.03896873 -17.35704041 41.6631012 C-16.9362301 33.63784002 -16.36403716 25.64058017 -15.52500916 17.6474762 C-15.45081757 16.9038382 -15.37662598 16.1602002 -15.30018616 15.39402771 C-14.71165818 10.1277916 -14.17852863 6.22038116 -10.35930538 2.40672398 C-6.82810991 0.09406481 -4.08186672 -0.04878597 0 0 Z " fill="#FFFFFF" transform="translate(172.47032165527344,185.48533630371094)"/>
<path d="M0 0 C0.68592667 -0.00226556 1.37185333 -0.00453111 2.07856566 -0.00686532 C4.37617049 -0.01319366 6.67371616 -0.01237671 8.97132874 -0.0115509 C10.6189583 -0.01454309 12.26658715 -0.01794576 13.91421509 -0.02172852 C18.38938158 -0.0305659 22.86452895 -0.0329065 27.33970332 -0.0335443 C31.07488315 -0.03449373 34.81005853 -0.03817236 38.54523665 -0.0417164 C47.35654047 -0.04985971 56.16783408 -0.05230072 64.97914124 -0.05158997 C74.07115391 -0.05098896 83.16310729 -0.06154562 92.25510496 -0.07733363 C100.05987291 -0.09040388 107.86462146 -0.09577409 115.66940027 -0.09513456 C120.33141925 -0.09487945 124.99338552 -0.09773778 129.6553936 -0.10831261 C134.03925909 -0.1179851 138.42302139 -0.11807861 142.80689049 -0.11079597 C144.41573995 -0.10974913 146.02459582 -0.11211896 147.6334343 -0.11815643 C149.82988195 -0.12586517 152.02597224 -0.12123917 154.22241211 -0.11352539 C156.06604041 -0.11434254 156.06604041 -0.11434254 157.94691372 -0.1151762 C161.90853856 0.19029798 164.81160854 1.05304661 167.93275452 3.5275116 C170.35298632 6.65758925 170.25643302 10.34107319 170.17469788 14.13371277 C169.47251213 19.46656943 168.37976551 24.69486889 167.23719788 29.94621277 C167.07952942 30.68993134 166.92186096 31.4336499 166.75941467 32.1999054 C159.69268736 65.49523389 150.15024414 101.01195675 130.17469788 129.13371277 C129.39628129 130.28012045 128.61902165 131.42731423 127.84266663 132.57511902 C118.07912972 146.83409737 106.81642015 158.60536831 89.17469788 162.13371277 C73.50137701 163.75071251 55.30403504 161.93583844 42.52235413 152.09074402 C39.9674549 149.8585689 37.55483273 147.55065383 35.17469788 145.13371277 C34.23497131 144.19205261 34.23497131 144.19205261 33.27626038 143.23136902 C27.93761993 137.51829904 24.03171743 130.89759554 20.17469788 124.13371277 C19.78910706 123.4650116 19.40351624 122.79631042 19.00624084 122.10734558 C3.19041559 94.380207 -5.46986639 63.53686514 -12.38780212 32.57121277 C-12.661315 31.37605545 -12.661315 31.37605545 -12.94035339 30.15675354 C-16.93194972 12.5746788 -16.93194972 12.5746788 -14.82530212 5.13371277 C-10.96635434 -0.322041 -6.27094875 0.00855299 0 0 Z " fill="#FFFFFF" transform="translate(178.82530212402344,336.8662872314453)"/>
<path d="M0 0 C32.69749764 30.89986404 45.18460162 82.51825541 54.0625 124.8125 C54.2788208 125.81369873 54.4951416 126.81489746 54.71801758 127.84643555 C55.87275024 133.67080171 56.50517177 139.17244404 55 145 C52.75410675 147.99452434 51.55130633 148.81623122 48 150 C45.74134203 150.09861713 43.47982805 150.13503749 41.21902466 150.14044189 C40.17916564 150.14489858 40.17916564 150.14489858 39.11829937 150.1494453 C36.78995434 150.15813306 34.46166074 150.1596406 32.13330078 150.16113281 C30.4661142 150.16576089 28.79892867 150.17078554 27.13174438 150.17617798 C22.59867343 150.18930398 18.0656173 150.19574719 13.53253031 150.20018864 C10.70139141 150.20311871 7.87025658 150.20722337 5.03911972 150.21169281 C-3.81620829 150.22536754 -12.67152704 150.23503462 -21.52686489 150.2388947 C-31.75421468 150.24337719 -41.98143093 150.26093403 -52.20874012 150.2898953 C-60.11115159 150.31149753 -68.01352546 150.32159818 -75.91596615 150.32293582 C-80.63727583 150.32398479 -85.35845998 150.32991218 -90.07973862 150.34775543 C-94.52025807 150.36421119 -98.9605573 150.36640381 -103.40109634 150.35761642 C-105.03091267 150.35684474 -106.66074071 150.36120606 -108.29052734 150.37107468 C-110.515634 150.38375802 -112.73995636 150.37793771 -114.96505737 150.36749268 C-116.21019041 150.36895924 -117.45532345 150.3704258 -118.73818779 150.3719368 C-123.23195036 149.85952359 -125.81538404 148.26359036 -128.875 145 C-132.3284573 135.79078052 -127.54693944 123.2862354 -125.4375 113.9375 C-125.2601532 113.14620697 -125.0828064 112.35491394 -124.90008545 111.53964233 C-117.16715858 77.22461757 -106.61351653 36.34686277 -82 10 C-81.01877158 8.75161779 -80.03941653 7.50175934 -79.0625 6.25 C-59.98855043 -15.40849558 -22.2592898 -17.14185082 0 0 Z " fill="#FFFFFF" transform="translate(293,24)"/>
<path d="M0 0 C15.41194706 -0.11687628 30.82386091 -0.20500912 46.23614693 -0.25906086 C53.39260816 -0.28482683 60.5487938 -0.31994601 67.70507812 -0.37719727 C73.94356977 -0.4270822 80.18186181 -0.45930272 86.42054737 -0.47044247 C89.7230843 -0.47695292 93.0249181 -0.49485274 96.32730484 -0.52865028 C100.01688844 -0.56491107 103.70528661 -0.56994626 107.39501953 -0.56762695 C109.03176888 -0.59459152 109.03176888 -0.59459152 110.70158386 -0.62210083 C118.9710997 -0.56579848 118.9710997 -0.56579848 122.66844177 2.33488464 C126.50401898 6.71918678 126.10096384 10.98829384 125.83813477 16.52880859 C125.71311482 18.2358959 125.5804664 19.94243652 125.44140625 21.6484375 C125.3006518 23.54587678 125.16020106 25.44333862 125.02001953 27.34082031 C124.94479065 28.32554321 124.86956177 29.31026611 124.79205322 30.3248291 C123.1783856 51.76631432 122.31584701 72.73901616 123.75 94.21875 C123.81963959 95.3143927 123.88927917 96.4100354 123.96102905 97.53887939 C124.31864691 103.16496295 124.69782526 108.78862838 125.10791016 114.41113281 C125.25168094 116.4980432 125.39540057 118.58495711 125.5390625 120.671875 C125.61503662 121.63847046 125.69101074 122.60506592 125.76928711 123.60095215 C126.13957443 129.14410879 126.2491272 133.26193211 122.5625 137.75 C119.60887023 140.11290382 116.78037871 140.12410242 113.15950012 140.12025452 C112.16250595 140.12162918 111.16551178 140.12300385 110.13830566 140.12442017 C109.04570435 140.12082489 107.95310303 140.11722961 106.82739258 140.11352539 C105.67603317 140.11367142 104.52467377 140.11381744 103.33842468 140.1139679 C99.52377453 140.11326991 95.7091729 140.10548279 91.89453125 140.09765625 C89.25323005 140.09579167 86.6119285 140.09436795 83.97062683 140.09336853 C77.72334171 140.09025948 71.47607408 140.08205182 65.22879666 140.07201904 C58.11641019 140.0608447 51.00402288 140.05534412 43.89162982 140.05032361 C29.26107752 140.03986886 14.63053901 140.02227764 0 140 C-0.96913972 135.92768885 -1.92687351 131.85277207 -2.8828125 127.77734375 C-3.15327393 126.64147827 -3.42373535 125.50561279 -3.70239258 124.33532715 C-13.11967912 84.02160051 -10.09372664 43.11436687 -0.50317383 3.1953125 C0.03723508 1.2129191 0.03723508 1.2129191 0 0 Z " fill="#FFFFFF" transform="translate(21,186)"/>
<path d="M0 0 C1.15165146 -0.00058411 2.30330292 -0.00116821 3.48985291 -0.00177002 C7.29391691 0.00101519 11.09719602 0.03212971 14.90112305 0.06347656 C17.53956169 0.07093735 20.17800587 0.07663105 22.81645203 0.08062744 C29.04963083 0.09304793 35.2825282 0.12585664 41.51558322 0.1660254 C48.61346868 0.21077225 55.71136774 0.23273742 62.80935919 0.25280714 C77.40649841 0.29459033 92.00341616 0.36492415 106.6003418 0.45410156 C107.56549976 4.57031118 108.52480858 8.68786354 109.4831543 12.80566406 C109.75361572 13.95881104 110.02407715 15.11195801 110.30273438 16.30004883 C117.71276191 48.2071537 119.10378752 84.21781222 112.6003418 116.45410156 C112.39151367 117.48937988 112.18268555 118.5246582 111.9675293 119.59130859 C110.72914339 125.61153661 109.41478528 131.6102753 108.01171875 137.59423828 C107.56434733 139.29936575 107.56434733 139.29936575 107.6003418 140.45410156 C92.30144495 140.52420105 77.00255552 140.57709434 61.70353413 140.60953808 C54.59982749 140.62500308 47.49622068 140.64608549 40.39257812 140.68041992 C33.53911071 140.71352936 26.68574716 140.73094761 19.83220482 140.73873329 C17.21549025 140.74428281 14.59878145 140.75511942 11.98211098 140.77129173 C8.32128177 140.79302069 4.66088316 140.79607031 1 140.79467773 C-0.08541077 140.80546356 -1.17082153 140.81624939 -2.28912354 140.82736206 C-8.85900468 140.80026097 -12.61995875 140.23380101 -17.3996582 135.45410156 C-18.80703067 128.75500864 -18.16029728 122.3333668 -17.61950684 115.55160522 C-16.449764 100.42321853 -16.15215099 85.31106875 -16.1496582 70.14160156 C-16.14940643 69.10000885 -16.14915466 68.05841614 -16.14889526 66.98526001 C-16.17084683 51.35377598 -16.67493677 35.79030396 -17.86352539 20.20288086 C-17.93792343 19.15655739 -17.93792343 19.15655739 -18.01382446 18.08909607 C-18.1468927 16.24159039 -18.29438324 14.39513882 -18.44311523 12.54882812 C-18.38056565 8.0944543 -17.47501751 5.67149409 -14.52915955 2.33654785 C-9.79965178 -0.50832849 -5.41920748 -0.07180156 0 0 Z " fill="#FFFFFF" transform="translate(383.399658203125,185.5458984375)"/>
<path d="M0 0 C1.075345 -0.00350464 2.15069 -0.00700928 3.25862122 -0.01062012 C6.8111518 -0.01941841 10.36348304 -0.01359487 13.91601562 -0.00683594 C16.38553913 -0.00818313 18.85506237 -0.01012412 21.32458496 -0.01263428 C26.49945603 -0.01558297 31.67425805 -0.01129601 36.84912109 -0.00195312 C43.48375699 0.00944117 50.11823107 0.00288035 56.75286102 -0.00909805 C61.85204285 -0.01632348 66.95118628 -0.01402556 72.05036926 -0.00884247 C74.49681111 -0.00750787 76.94325643 -0.00914706 79.38969421 -0.01380157 C82.80806722 -0.0188779 86.2261778 -0.0111407 89.64453125 0 C91.16268181 -0.00607269 91.16268181 -0.00607269 92.71150208 -0.01226807 C98.50880054 0.02275129 102.68405509 0.35597234 107.50488281 3.83300781 C110.1287765 7.33529257 110.62883796 10.81927333 111.40039062 15.07128906 C111.57262146 15.94436203 111.74485229 16.817435 111.92230225 17.71696472 C112.2915224 19.58939847 112.65463117 21.46304575 113.01220703 23.33773804 C113.95468971 28.25336657 114.95657337 33.15666892 115.96289062 38.05957031 C116.16209106 39.03114578 116.3612915 40.00272125 116.56652832 41.0037384 C120.86218934 61.69783305 127.31647815 81.70934904 135.32226562 101.25878906 C135.63599121 102.03222656 135.9497168 102.80566406 136.27294922 103.60253906 C140.88585732 114.7551717 147.19890523 124.47826198 154.05273438 134.38378906 C163.17450842 147.72317184 163.17450842 147.72317184 163.32226562 155.25878906 C162.32617187 157.45800781 162.32617187 157.45800781 161.32226562 159.25878906 C159.9872995 158.99612212 158.65437858 158.72306253 157.32226562 158.44628906 C156.20851562 158.22005859 156.20851562 158.22005859 155.07226562 157.98925781 C152.13241856 157.20836094 149.33741203 156.16796477 146.5 155.07739258 C144.30388265 154.25187896 142.09468526 153.49322551 139.86914062 152.75097656 C117.58380976 145.27227284 96.83300428 135.40474407 77.32226562 122.25878906 C76.74863281 121.87352051 76.175 121.48825195 75.58398438 121.09130859 C55.66870433 107.59904353 36.70134391 90.57904153 22.32226562 71.25878906 C21.89204102 70.68854004 21.46181641 70.11829102 21.01855469 69.53076172 C5.43620734 48.74168277 -6.06827301 26.31702803 -15.67773438 2.25878906 C-10.6594742 -0.43518735 -5.53758715 -0.02215068 0 0 Z " fill="#FFFFFF" transform="translate(40.677734375,336.7412109375)"/>
<path d="M0 0 C0.93368912 -0.00281982 1.86737823 -0.00563965 2.82936096 -0.00854492 C3.84662766 -0.00652069 4.86389435 -0.00449646 5.9119873 -0.00241089 C7.52719521 -0.00503937 7.52719521 -0.00503937 9.17503357 -0.00772095 C12.73775846 -0.01212553 16.30043378 -0.00920634 19.86315918 -0.00582886 C22.33650726 -0.0065023 24.80985527 -0.00747266 27.28320312 -0.00872803 C32.46822744 -0.01020311 37.65323453 -0.00805649 42.83825684 -0.00338745 C49.48979788 0.00230971 56.14128176 -0.00097029 62.79282379 -0.00695992 C67.90053614 -0.01057061 73.0082389 -0.00942459 78.11595154 -0.00683212 C80.56880193 -0.00616427 83.02165318 -0.00698636 85.47450256 -0.00931168 C88.90030225 -0.01184649 92.32603627 -0.00798579 95.75183105 -0.00241089 C97.27773109 -0.00544724 97.27773109 -0.00544724 98.8344574 -0.00854492 C99.76814651 -0.0057251 100.70183563 -0.00290527 101.66381836 0 C102.47348808 0.00037703 103.28315781 0.00075405 104.11736298 0.0011425 C106.31017016 0.12574833 108.22587979 0.52033726 110.33190918 1.12698364 C108.4589022 7.02386826 106.35907113 12.72963638 103.83190918 18.37698364 C103.49296631 19.13495239 103.15402344 19.89292114 102.80480957 20.67385864 C97.0974214 33.22731051 91.12855846 46.15540659 82.76940918 57.18948364 C81.21644456 59.20073745 81.21644456 59.20073745 79.76940918 61.87698364 C79.29503418 62.61948364 78.82065918 63.36198364 78.33190918 64.12698364 C77.67190918 64.12698364 77.01190918 64.12698364 76.33190918 64.12698364 C76.11276855 64.81792114 75.89362793 65.50885864 75.66784668 66.22073364 C73.96762849 69.91945392 71.63285929 72.59189286 68.95690918 75.62698364 C67.99017381 76.74105568 67.02401883 77.85563164 66.05847168 78.97073364 C65.59408691 79.50400269 65.12970215 80.03727173 64.65124512 80.58670044 C62.8221472 82.72211472 61.08542177 84.92939968 59.33190918 87.12698364 C56.44736881 90.22786454 54.07931709 92.25327969 50.33190918 94.12698364 C49.83690918 95.61198364 49.83690918 95.61198364 49.33190918 97.12698364 C47.55456543 98.95120239 47.55456543 98.95120239 45.39440918 100.81448364 C44.68413574 101.43710083 43.9738623 102.05971802 43.24206543 102.70120239 C41.33190918 104.12698364 41.33190918 104.12698364 39.33190918 104.12698364 C39.33190918 104.78698364 39.33190918 105.44698364 39.33190918 106.12698364 C37.99353027 107.40457153 37.99353027 107.40457153 36.10534668 108.84963989 C35.41070312 109.3834729 34.71605957 109.91730591 34.00036621 110.46731567 C33.24352539 111.0356311 32.48668457 111.60394653 31.70690918 112.18948364 C30.93073242 112.77584595 30.15455566 113.36220825 29.3548584 113.96633911 C22.55811291 119.04961935 15.59040295 123.73138695 8.33190918 128.12698364 C7.63404297 128.55720825 6.93617676 128.98743286 6.21716309 129.43069458 C-15.00113474 142.46036625 -38.2590634 152.12036514 -62.58605957 157.61917114 C-64.7106858 158.05555736 -64.7106858 158.05555736 -66.66809082 159.12698364 C-67.71606111 154.62071139 -67.63909572 152.28447307 -65.66809082 148.12698364 C-64.68947572 146.66041642 -63.66464971 145.22405848 -62.60559082 143.81448364 C-57.68406121 136.92230006 -53.6778532 129.57267314 -49.66809082 122.12698364 C-49.33164551 121.5114563 -48.9952002 120.89592896 -48.64855957 120.26174927 C-33.05219741 91.52343253 -24.66512164 59.60745758 -18.21105957 27.76370239 C-17.95115234 26.49574829 -17.69124512 25.22779419 -17.42346191 23.92141724 C-16.91296308 21.35704332 -16.43223896 18.78658955 -15.97912598 16.2114563 C-15.74886719 14.97315063 -15.5186084 13.73484497 -15.28137207 12.45901489 C-14.99387085 10.80929687 -14.99387085 10.80929687 -14.70056152 9.12625122 C-13.41062695 5.37906602 -11.71728141 3.62090738 -8.66809082 1.12698364 C-5.74793052 0.14910952 -3.06585189 0.00142762 0 0 Z " fill="#FFFFFF" transform="translate(375.6680908203125,336.8730163574219)"/>
<path d="M0 0 C0.99 0.495 0.99 0.495 2 1 C1.54385062 6.43975161 0.30879167 9.61395638 -2.8125 14.0625 C-26.79814128 49.7965098 -39.48335432 91.36292068 -47.40625 133.3203125 C-47.62450439 134.46886719 -47.84275879 135.61742187 -48.06762695 136.80078125 C-48.47013466 138.95932595 -48.85758719 141.12075244 -49.22729492 143.28515625 C-50.52818384 150.36902829 -50.52818384 150.36902829 -52.95703125 153.6171875 C-56.20476275 155.81546083 -58.85234454 156.12604477 -62.66845703 156.13371277 C-63.62745911 156.13797775 -64.58646118 156.14224274 -65.57452393 156.14663696 C-66.62500916 156.14618378 -67.67549438 156.14573059 -68.7578125 156.14526367 C-69.86533875 156.14862228 -70.97286499 156.1519809 -72.11395264 156.15544128 C-75.78431308 156.16496035 -79.45462797 156.16689476 -83.125 156.16796875 C-85.66943379 156.17118022 -88.21386739 156.1745442 -90.75830078 156.17805481 C-96.09473168 156.18404816 -101.43114551 156.1859372 -106.76757812 156.18530273 C-112.93820595 156.18470153 -119.10874647 156.19526258 -125.27935219 156.2110464 C-131.21404898 156.22568655 -137.14871903 156.22929114 -143.08343506 156.22869301 C-145.60968381 156.22987615 -148.13593315 156.23431651 -150.66217041 156.24202538 C-154.18891736 156.25178098 -157.71543719 156.24896492 -161.2421875 156.24291992 C-162.81791534 156.25134918 -162.81791534 156.25134918 -164.42547607 156.25994873 C-165.86397919 156.253657 -165.86397919 156.253657 -167.33154297 156.24723816 C-168.16555634 156.24778293 -168.9995697 156.24832769 -169.8588562 156.24888897 C-172 156 -172 156 -175 154 C-167.67041008 136.96532416 -160.37670732 120.43707503 -150 105 C-149.58121582 104.37609375 -149.16243164 103.7521875 -148.73095703 103.109375 C-141.89722187 92.99747321 -134.53426209 83.62208802 -126.37890625 74.54638672 C-124.61024405 72.56290472 -122.90209593 70.53023746 -121.1875 68.5 C-118.40180131 65.32512282 -115.37831416 62.57011198 -112.15625 59.84375 C-109.77592046 57.80839576 -107.48762275 55.68792988 -105.1875 53.5625 C-100.07095372 48.94742227 -94.63209499 44.95724458 -89 41 C-88.28070313 40.46117187 -87.56140625 39.92234375 -86.8203125 39.3671875 C-62.20536543 21.23446849 -32.96839108 8.59407398 -3.32055664 1.62866211 C-1.05583658 1.22170574 -1.05583658 1.22170574 0 0 Z " fill="#FFFFFF" transform="translate(201,18)"/>
<path d="M0 0 C17.13202335 5.02699794 33.81425663 10.36873838 50 18 C51.08692139 18.50829346 51.08692139 18.50829346 52.19580078 19.02685547 C76.25207322 30.37645304 99.38684884 45.89702907 118 65 C118.928125 65.886875 119.85625 66.77375 120.8125 67.6875 C123 70 123 70 123 72 C124.485 72.495 124.485 72.495 126 73 C127.60546875 74.55859375 127.60546875 74.55859375 129.1875 76.4375 C129.71730469 77.05496094 130.24710938 77.67242187 130.79296875 78.30859375 C132 80 132 80 132 82 C132.66 82 133.32 82 134 82 C135.23681641 83.34521484 135.23681641 83.34521484 136.6015625 85.2109375 C137.09140625 85.87867187 137.58125 86.54640625 138.0859375 87.234375 C138.59382812 87.94078125 139.10171875 88.6471875 139.625 89.375 C140.3984375 90.42300781 140.3984375 90.42300781 141.1875 91.4921875 C145 96.73689649 145 96.73689649 145 99 C145.66 99 146.32 99 147 99 C148.29345703 100.765625 148.29345703 100.765625 149.7578125 103.25 C150.56690063 104.61608398 150.56690063 104.61608398 151.39233398 106.00976562 C151.96411377 106.99654297 152.53589355 107.98332031 153.125 109 C153.71031494 110.00224609 154.29562988 111.00449219 154.89868164 112.03710938 C174 145.03676521 174 145.03676521 174 154 C174.66 154.33 175.32 154.66 176 155 C173.12948941 155.95683686 171.32566901 156.12977758 168.34500122 156.14044189 C167.38888947 156.14615204 166.43277771 156.15186218 165.44769287 156.15774536 C164.40034973 156.15886322 163.35300659 156.15998108 162.27392578 156.16113281 C161.16961212 156.16609772 160.06529846 156.17106262 158.92752075 156.17617798 C155.26677838 156.190808 151.60607933 156.19760267 147.9453125 156.203125 C145.40567015 156.20887531 142.86602782 156.21463306 140.3263855 156.22039795 C135.6796047 156.22956592 131.03283694 156.23586557 126.38604939 156.2388947 C119.55006122 156.24337565 112.71427299 156.26092697 105.87834561 156.2898953 C99.95433753 156.31412658 94.0303792 156.32183948 88.10631943 156.32357025 C85.58729844 156.32660075 83.06827838 156.33464259 80.5492897 156.34775543 C77.02765943 156.36478044 73.50651784 156.36294419 69.98486328 156.35644531 C68.9415686 156.3656601 67.89827393 156.37487488 66.82336426 156.3843689 C60.37638715 156.3470368 56.68933571 155.68933571 52 151 C51.34653839 148.39140676 50.79523305 145.8268198 50.30078125 143.1875 C49.97957495 141.55113994 49.65811258 139.91483012 49.33642578 138.27856445 C49.16983459 137.41735992 49.00324341 136.5561554 48.831604 135.66885376 C40.27149942 91.65904621 27.58355561 47.908077 1.703125 10.68359375 C-0.36329894 7.42755419 -0.77522356 4.82119944 -1 1 C-0.67 0.67 -0.34 0.34 0 0 Z " fill="#FFFFFF" transform="translate(310,18)"/>
</svg>
